<svg xmlns="http://www.w3.org/2000/svg" xmlns:xlink="http://www.w3.org/1999/xlink" width="500" zoomAndPan="magnify" viewBox="0 0 375 374.999991" height="500" preserveAspectRatio="xMidYMid meet" version="1.0"><defs><clipPath id="65ed270bca"><path d="M 83.429688 82.277344 L 291.722656 82.277344 L 291.722656 293.023438 L 83.429688 293.023438 Z M 83.429688 82.277344 " clip-rule="nonzero"/></clipPath></defs><g clip-path="url(#65ed270bca)"><path fill="#000000" d="M 178.828125 277.210938 C 167.78125 273.464844 153.78125 274.820312 152.332031 284.5 C 163.636719 285.699219 175.835938 289.445312 187.4375 288.144531 C 191.207031 282.265625 183.75 278.878906 178.828125 277.210938 Z M 277.519531 259.976562 C 274.566406 265.414062 270.863281 270.101562 265.597656 273.234375 C 273.347656 272.921875 280.605469 272.121094 287.125 270.582031 C 287.660156 269.351562 287.402344 267.320312 287.457031 265.609375 C 285.480469 262.363281 281.894531 259.828125 277.519531 259.976562 Z M 248.046875 276.546875 C 253.546875 274.570312 259.660156 272.992188 264.273438 270.582031 C 270.449219 267.351562 275.957031 258.8125 277.519531 251.691406 C 279.09375 244.535156 276.574219 238.058594 275.203125 231.808594 C 272.699219 220.40625 266.429688 210.21875 258.3125 205.292969 C 242.6875 195.820312 213.5625 203.707031 204.328125 214.242188 C 200.988281 218.054688 199.355469 224.023438 197.707031 228.824219 C 194.484375 238.191406 191.28125 248.257812 189.09375 259.644531 C 188.480469 262.84375 185.316406 273.464844 186.113281 276.546875 C 186.949219 279.761719 192.765625 279.941406 191.742188 285.824219 C 212.300781 284.996094 232.042969 282.292969 248.046875 276.546875 Z M 251.6875 117.804688 C 246.617188 111.304688 239.273438 105.476562 232.8125 100.238281 C 230.488281 98.355469 228.363281 95.847656 226.1875 94.605469 C 218.4375 90.195312 205.875 86.976562 194.0625 86.320312 C 181.894531 85.648438 169.410156 87.671875 159.949219 89.964844 C 152.121094 91.867188 144.53125 93.714844 138.09375 97.589844 C 124.300781 105.882812 113.582031 118.386719 105.96875 133.046875 C 97.015625 150.289062 93.925781 170.8125 92.390625 194.691406 C 91.480469 208.8125 94.460938 229.519531 90.402344 241.75 C 89.445312 244.628906 87.523438 247.558594 87.421875 251.027344 C 87.136719 260.539062 92.164062 266.460938 98.351562 270.914062 C 114.472656 275.878906 131.339844 280.097656 149.023438 283.503906 C 151.269531 279.117188 153.375 275.757812 157.964844 273.5625 C 162.378906 271.453125 166.460938 272.207031 171.210938 272.902344 C 176.859375 273.726562 180.601562 274.101562 184.125 276.214844 C 184.398438 265.222656 187.363281 254.351562 190.089844 244.070312 C 192.710938 234.164062 195.148438 223.296875 199.691406 215.566406 C 205.695312 205.351562 224.710938 197.992188 240.097656 197.671875 C 251.074219 197.445312 261.171875 202.609375 266.589844 208.277344 C 272.90625 214.882812 277.5 224.222656 279.507812 235.121094 C 276.988281 188.871094 273.027344 145.144531 251.6875 117.804688 Z M 280.832031 255.335938 C 284.523438 257.835938 289.75 259.683594 291.101562 264.285156 C 294.386719 275.496094 284.09375 275.855469 274.539062 276.878906 C 268.449219 277.53125 261.816406 276.5 257.316406 277.210938 C 255.03125 277.570312 252.769531 279.277344 250.363281 280.191406 C 239.101562 284.476562 224.554688 287.242188 210.953125 288.808594 C 205.066406 289.488281 198.609375 288.761719 192.738281 289.800781 C 189.730469 290.335938 189.167969 292.355469 186.445312 292.785156 C 181.054688 293.636719 175.648438 291.96875 169.554688 291.460938 C 163.828125 290.984375 158.355469 290.394531 153.328125 289.472656 C 151.246094 289.089844 148.910156 287.824219 146.371094 287.152344 C 133.921875 283.847656 120.84375 282.046875 109.277344 277.871094 C 101.066406 274.910156 92.113281 272.351562 87.753906 265.941406 C 85.296875 262.335938 83.210938 255.183594 83.445312 250.367188 C 83.785156 243.449219 87.8125 238.941406 88.414062 231.144531 C 89.207031 220.828125 88.082031 210.4375 88.082031 200.65625 C 88.082031 190.8125 89.097656 181.105469 90.070312 172.15625 C 91.84375 155.871094 97.199219 138.117188 105.304688 126.089844 C 112.035156 116.101562 117.152344 108.507812 126.5 101.234375 C 129.21875 99.117188 132.183594 96.5 135.113281 94.605469 C 148.171875 86.15625 164.234375 85.011719 184.457031 82.675781 C 199.875 80.894531 218.25 85.3125 228.175781 90.960938 C 230.753906 92.429688 232.816406 95.335938 235.460938 97.589844 C 242.933594 103.957031 251.152344 109.789062 256.988281 117.804688 C 264.796875 128.527344 270.148438 142.441406 273.878906 156.578125 C 275.785156 163.804688 277.742188 171.105469 279.175781 179.113281 C 280.597656 187.046875 280.710938 195.878906 281.496094 204.632812 C 282.988281 221.320312 285.398438 239.183594 280.832031 255.335938 " fill-opacity="1" fill-rule="evenodd"/></g><path fill="#696c7f" d="M 96.695312 253.015625 C 95.738281 250.109375 95.683594 246.296875 94.375 243.738281 C 93.644531 247.046875 94.871094 251.167969 96.695312 253.015625 Z M 99.011719 247.714844 C 100.390625 246.347656 98.800781 242.773438 97.023438 242.414062 C 97.332031 244.535156 97.300781 246.996094 99.011719 247.714844 Z M 116.566406 232.46875 C 114.691406 230.628906 112.742188 229.253906 111.597656 226.503906 C 108.875 219.980469 111.605469 210.550781 110.933594 204.300781 C 108.382812 206.152344 107.890625 211.257812 107.625 215.238281 C 106.992188 224.625 110.066406 232.707031 115.242188 235.121094 C 132.457031 243.148438 142.183594 218.238281 134.78125 202.976562 C 134.355469 202.957031 134.320312 202.550781 133.785156 202.644531 C 135.453125 217.347656 133.703125 236.628906 116.566406 232.46875 Z M 105.96875 212.917969 C 106.617188 209.457031 109.015625 204.289062 107.292969 200.65625 C 107.132812 204.808594 105.597656 209.34375 105.96875 212.917969 Z M 217.574219 148.292969 C 216.4375 149.304688 214.539062 152.324219 215.257812 153.925781 C 216.476562 156.636719 225.566406 156.917969 228.835938 156.910156 C 235.617188 156.894531 245.207031 156.175781 245.066406 150.945312 C 244.910156 145.394531 233.710938 144.683594 227.84375 145.308594 C 223.457031 145.78125 219.316406 146.75 217.574219 148.292969 Z M 185.121094 146.96875 C 185.609375 151.550781 195.730469 150.128906 194.722656 145.640625 C 194.324219 143.863281 192.128906 143.484375 189.757812 143.652344 C 186.988281 143.851562 184.828125 144.234375 185.121094 146.96875 Z M 248.375 143.652344 C 249.320312 146.441406 257.714844 145.902344 257.648438 141.996094 C 257.613281 139.796875 255.472656 139.199219 253.011719 139.347656 C 250.414062 139.5 247.234375 140.28125 248.375 143.652344 Z M 279.507812 235.121094 C 277.496094 224.222656 272.90625 214.882812 266.589844 208.277344 C 261.171875 202.609375 251.074219 197.445312 240.097656 197.671875 C 224.710938 197.992188 205.695312 205.351562 199.691406 215.566406 C 195.148438 223.296875 192.710938 234.164062 190.085938 244.070312 C 187.363281 254.351562 184.398438 265.222656 184.125 276.214844 C 180.601562 274.101562 176.859375 273.726562 171.210938 272.902344 C 166.460938 272.207031 162.378906 271.453125 157.964844 273.5625 C 153.375 275.757812 151.269531 279.117188 149.019531 283.503906 C 131.339844 280.097656 114.472656 275.878906 98.351562 270.914062 C 92.164062 266.460938 87.136719 260.539062 87.421875 251.027344 C 87.523438 247.558594 89.445312 244.628906 90.402344 241.75 C 94.460938 229.519531 91.480469 208.8125 92.390625 194.691406 C 93.925781 170.8125 97.015625 150.289062 105.96875 133.050781 C 113.582031 118.386719 124.300781 105.882812 138.09375 97.589844 C 144.53125 93.71875 152.121094 91.867188 159.949219 89.964844 C 169.410156 87.671875 181.894531 85.648438 194.0625 86.320312 C 205.871094 86.976562 218.4375 90.195312 226.1875 94.605469 C 228.363281 95.847656 230.488281 98.355469 232.808594 100.238281 C 239.269531 105.476562 246.617188 111.308594 251.6875 117.804688 C 273.027344 145.144531 276.988281 188.875 279.507812 235.121094 " fill-opacity="1" fill-rule="evenodd"/><path fill="#000000" d="M 253.015625 139.34375 C 255.472656 139.199219 257.613281 139.792969 257.648438 141.996094 C 257.714844 145.898438 249.324219 146.441406 248.375 143.652344 C 247.234375 140.28125 250.414062 139.5 253.015625 139.34375 " fill-opacity="1" fill-rule="evenodd"/><path fill="#000000" d="M 189.757812 143.652344 C 192.128906 143.484375 194.324219 143.859375 194.726562 145.640625 C 195.730469 150.128906 185.609375 151.550781 185.121094 146.96875 C 184.828125 144.230469 186.988281 143.851562 189.757812 143.652344 " fill-opacity="1" fill-rule="evenodd"/><path fill="#000000" d="M 217.90625 153.265625 C 225.578125 153.882812 237.714844 155.847656 242.414062 150.945312 C 237.558594 146.128906 219.089844 146.648438 217.90625 153.265625 Z M 227.84375 145.3125 C 233.710938 144.683594 244.910156 145.394531 245.066406 150.945312 C 245.210938 156.175781 235.621094 156.894531 228.835938 156.910156 C 225.566406 156.917969 216.476562 156.636719 215.257812 153.925781 C 214.539062 152.324219 216.441406 149.300781 217.578125 148.292969 C 219.316406 146.746094 223.457031 145.78125 227.84375 145.3125 " fill-opacity="1" fill-rule="evenodd"/><path fill="#ffe000" d="M 242.414062 150.945312 C 237.714844 155.847656 225.578125 153.882812 217.90625 153.265625 C 219.089844 146.648438 237.558594 146.128906 242.414062 150.945312 " fill-opacity="1" fill-rule="evenodd"/><path fill="#34384c" d="M 107.292969 200.65625 C 109.015625 204.289062 106.617188 209.457031 105.96875 212.917969 C 105.597656 209.34375 107.132812 204.808594 107.292969 200.65625 " fill-opacity="1" fill-rule="evenodd"/><path fill="#bcd2e8" d="M 191.742188 285.824219 C 192.765625 279.941406 186.949219 279.765625 186.113281 276.546875 C 185.316406 273.464844 188.480469 262.84375 189.09375 259.644531 C 191.28125 248.257812 194.484375 238.191406 197.707031 228.824219 C 199.355469 224.023438 200.988281 218.054688 204.328125 214.242188 C 213.5625 203.707031 242.6875 195.820312 258.3125 205.292969 C 266.433594 210.21875 272.699219 220.40625 275.203125 231.808594 C 276.574219 238.058594 279.09375 244.535156 277.519531 251.691406 C 275.957031 258.8125 270.449219 267.351562 264.273438 270.582031 C 259.660156 272.992188 253.546875 274.570312 248.046875 276.546875 C 232.042969 282.292969 212.300781 284.996094 191.742188 285.824219 " fill-opacity="1" fill-rule="evenodd"/><path fill="#000000" d="M 133.785156 202.644531 C 134.320312 202.550781 134.355469 202.957031 134.78125 202.976562 C 142.183594 218.238281 132.457031 243.148438 115.242188 235.121094 C 110.066406 232.707031 106.992188 224.625 107.625 215.238281 C 107.890625 211.257812 108.382812 206.152344 110.933594 204.300781 C 111.605469 210.550781 108.875 219.980469 111.597656 226.503906 C 112.742188 229.253906 114.691406 230.628906 116.566406 232.46875 C 133.703125 236.628906 135.453125 217.347656 133.785156 202.644531 " fill-opacity="1" fill-rule="evenodd"/><path fill="#34384c" d="M 97.023438 242.414062 C 98.800781 242.773438 100.390625 246.347656 99.011719 247.714844 C 97.300781 246.996094 97.332031 244.535156 97.023438 242.414062 " fill-opacity="1" fill-rule="evenodd"/><path fill="#34384c" d="M 94.375 243.738281 C 95.683594 246.296875 95.738281 250.109375 96.695312 253.015625 C 94.871094 251.167969 93.644531 247.046875 94.375 243.738281 " fill-opacity="1" fill-rule="evenodd"/><path fill="#ffe000" d="M 287.457031 265.609375 C 287.398438 267.320312 287.660156 269.351562 287.125 270.582031 C 280.605469 272.121094 273.347656 272.921875 265.597656 273.234375 C 270.863281 270.101562 274.566406 265.414062 277.519531 259.976562 C 281.890625 259.828125 285.480469 262.363281 287.457031 265.609375 " fill-opacity="1" fill-rule="evenodd"/><path fill="#ffe000" d="M 187.4375 288.144531 C 175.835938 289.445312 163.636719 285.699219 152.332031 284.5 C 153.78125 274.820312 167.78125 273.464844 178.828125 277.210938 C 183.75 278.878906 191.207031 282.265625 187.4375 288.144531 " fill-opacity="1" fill-rule="evenodd"/></svg>